<?xml version="1.0" encoding="UTF-8" standalone="no"?>
<!-- Created with Inkscape (http://www.inkscape.org/) -->

<svg
   xmlns:dc="http://purl.org/dc/elements/1.1/"
   xmlns:cc="http://creativecommons.org/ns#"
   xmlns:rdf="http://www.w3.org/1999/02/22-rdf-syntax-ns#"
   xmlns:svg="http://www.w3.org/2000/svg"
   xmlns="http://www.w3.org/2000/svg"
   xmlns:sodipodi="http://sodipodi.sourceforge.net/DTD/sodipodi-0.dtd"
   xmlns:inkscape="http://www.inkscape.org/namespaces/inkscape"
   width="100"
   height="100"
   id="svg2"
   version="1.1"
   inkscape:version="0.48.4 r9939"
   sodipodi:docname="avatar.svg">
  <defs
     id="defs4" />
  <sodipodi:namedview
     id="base"
     pagecolor="#ffffff"
     bordercolor="#666666"
     borderopacity="1.0"
     inkscape:pageopacity="0.0"
     inkscape:pageshadow="2"
     inkscape:zoom="6.9833267"
     inkscape:cx="44.509269"
     inkscape:cy="52.627482"
     inkscape:document-units="px"
     inkscape:current-layer="layer1"
     showgrid="false"
     inkscape:window-width="1301"
     inkscape:window-height="744"
     inkscape:window-x="65"
     inkscape:window-y="24"
     inkscape:window-maximized="1" />
  <metadata
     id="metadata7">
    <rdf:RDF>
      <cc:Work
         rdf:about="">
        <dc:format>image/svg+xml</dc:format>
        <dc:type
           rdf:resource="http://purl.org/dc/dcmitype/StillImage" />
        <dc:title />
      </cc:Work>
    </rdf:RDF>
  </metadata>
  <g
     inkscape:label="Calque 1"
     inkscape:groupmode="layer"
     id="layer1"
     transform="translate(0,-952.36218)">
    <path
       inkscape:connector-curvature="0"
       id="path3852"
       d="m 11.10929,1042.3874 c -0.85795,-0.1364 -2.44591,-0.7845 -3.29371,-1.3443 -1.6488,-1.0888 -2.85508,-2.9252 -3.29989,-5.0237 -0.3510299,-1.656 -0.3493099,-70.89265 0.002,-72.54926 0.67207,-3.17102 3.11513,-5.63835 6.22501,-6.28688 1.19073,-0.24831 71.24487,-0.26189 72.551657,-0.0141 2.173501,0.41219 4.436558,2.0607 5.456876,3.97501 1.097919,2.05991 1.024927,-0.6894 1.024927,38.60483 0,31.0893 -0.03199,35.8029 -0.248612,36.6345 -0.785558,3.016 -3.309013,5.3843 -6.323665,5.9349 -0.692728,0.1266 -11.57552,0.1739 -36.333333,0.158 -19.439415,-0.013 -35.53189,-0.053 -35.76106,-0.089 z m 71.225185,-4.3435 c 1.612053,-0.6146 2.049227,-0.9669 2.601878,-2.0967 0.277484,-0.5673 0.57991,-1.4354 0.67206,-1.9292 0.108754,-0.5827 0.167547,-12.662 0.167547,-34.4233 0,-36.49503 0.05433,-34.34612 -0.916825,-36.2626 -0.321553,-0.63456 -0.623702,-0.94481 -1.293055,-1.32775 -1.878988,-1.07499 0.234755,-1.01972 -37.04012,-0.96846 l -33.83333,0.0465 -0.98414,0.3749 c -0.54128,0.2062 -1.24393,0.57306 -1.56146,0.81525 -0.72254,0.5511 -1.46431,2.10825 -1.69579,3.55985 -0.24065,1.50904 -0.23932,66.33601 10e-4,67.83331 0.18185,1.1313 0.80315,2.6836 1.28944,3.2219 0.43426,0.4806 1.80389,1.1178 2.93418,1.3651 0.83115,0.1818 7.18194,0.2169 34.849704,0.1927 l 33.833333,-0.03 0.975182,-0.3718 z m -34.822108,-4.2063 c -0.19081,-0.077 -0.54706,-0.3782 -0.791667,-0.6689 l -0.44474,-0.5285 0,-32.7532 c 0,-30.02108 0.02274,-32.79165 0.27259,-33.21461 0.677577,-1.14705 2.164633,-1.313 3.128513,-0.34914 l 0.515564,0.51556 0.04291,32.75269 c 0.04744,36.2129 0.13117,33.3856 -1.00933,34.081 -0.562392,0.3429 -1.137394,0.3983 -1.71384,0.1651 z M 25.892292,984.26691 c -1.373242,-0.50822 -2.338729,-1.41587 -3.121482,-2.9345 -1.46136,-2.83523 1.094378,-6.9326 4.539398,-7.27758 2.602419,-0.2606 5.483712,2.47703 5.50969,5.23498 0.01735,1.84231 -1.29563,3.81891 -3.131618,4.71441 -1.010088,0.49267 -2.833593,0.61886 -3.795988,0.26269 z m 39.943093,-0.10458 c -1.2268,-0.48652 -2.285388,-1.48758 -2.90586,-2.74794 -0.467,-0.94861 -0.518068,-1.19292 -0.45978,-2.19956 0.08091,-1.39723 0.560125,-2.44165 1.616748,-3.52357 1.116517,-1.14324 2.160137,-1.60885 3.606134,-1.60885 1.4162,0 2.463606,0.45484 3.550623,1.54186 1.480542,1.48054 2.017262,3.52834 1.373257,5.23952 -1.014647,2.69602 -4.286847,4.28771 -6.781122,3.29854 z"
       style="fill:#080808"
       sodipodi:nodetypes="ccscscssccccccccsssscsssccccccccccssscsscssssssssssssss" />
    <path
       style="fill:none;stroke:#000000;stroke-width:1px;stroke-linecap:butt;stroke-linejoin:miter;stroke-opacity:1"
       d="M 52.872847,26.029188 67.23995,36.036851"
       id="path3862"
       inkscape:connector-curvature="0"
       transform="translate(0,952.36218)"
       sodipodi:nodetypes="cc" />
    <path
       style="fill:none;stroke:#000000;stroke-width:1px;stroke-linecap:butt;stroke-linejoin:miter;stroke-opacity:1"
       d="M 67.502094,35.250419 83.361809,30.269681"
       id="path3864"
       inkscape:connector-curvature="0"
       transform="translate(0,952.36218)"
       sodipodi:nodetypes="cc" />
    <path
       style="fill:#535d6c;stroke:none"
       d="m 68.943886,53.46943 10.354691,26.607621 -6.553602,10e-7 L 67.23995,60.154104 59.637772,80.60134 54.132747,80.27366 65.404941,53.207286 z"
       id="path3866"
       inkscape:connector-curvature="0"
       transform="translate(0,952.36218)"
       sodipodi:nodetypes="cccccccc" />
    <path
       style="fill:#000000;stroke:none"
       d="m 72.482831,53.600502 -2.228225,-17.432579 4.325377,-0.917505 -2.752512,-3.145728 -4.194305,2.490369 -2.490369,-2.621441 -3.145728,3.014657 3.145728,2.752512 -2.62144,17.170436 9.830402,-0.393216"
       id="path3870"
       inkscape:connector-curvature="0"
       transform="translate(0,952.36218)"
       sodipodi:nodetypes="cccccccccc" />
    <path
       style="fill:none;stroke:#000000;stroke-width:1px;stroke-linecap:butt;stroke-linejoin:miter;stroke-opacity:1"
       d="m 11.721136,975.39633 15.083094,12.72839 0,18.48118"
       id="path3862-3"
       inkscape:connector-curvature="0"
       sodipodi:nodetypes="ccc" />
    <path
       style="fill:none;stroke:#000000;stroke-width:1px;stroke-linecap:butt;stroke-linejoin:miter;stroke-opacity:1"
       d="M 27.066374,987.33832 43.498882,981.0688"
       id="path3864-6"
       inkscape:connector-curvature="0"
       sodipodi:nodetypes="cc" />
    <path
       style="fill:#d40055;stroke:none"
       d="m 28.508166,1005.5573 10.354691,26.6076 -6.553602,0 -5.505025,-19.9229 -7.602178,20.4472 -5.505025,-0.3277 11.272194,-27.0663 z"
       id="path3866-7"
       inkscape:connector-curvature="0"
       sodipodi:nodetypes="cccccccc" />
    <path
       style="fill:#ffcc00;stroke:none"
       d="m 32.047111,1005.6884 -2.228225,-17.43258 4.325377,-0.9175 -2.752512,-3.14572 -4.194305,2.49032 -2.490369,-2.62139 -3.145728,3.01469 3.145728,2.7525 -2.62144,17.17038 9.830402,-0.3932"
       id="path3870-5"
       inkscape:connector-curvature="0"
       sodipodi:nodetypes="cccccccccc" />
    <path
       style="fill:#ff6600;stroke:none"
       d="m 27.918342,974.5054 c -1.390046,-0.0753 -5.681911,2.21548 -5.111809,5.63609 0.286165,1.717 2.164778,3.26844 1.703936,5.11181 -0.36365,1.4546 -3.162362,1.22955 -3.670017,2.75252 -0.490461,1.47138 1.540159,4.76777 -0.917504,3.53894 -2.66824,-1.01433 -4.839658,-5.25355 -3.538945,-8.38861 1.398586,-2.79717 2.330921,-0.30809 2.621441,-1.17965 0.04259,-5.52154 -0.423061,-7.90911 3.538945,-9.30611 1.610377,-0.53679 3.188849,-4.28226 5.373953,-2.09715 2.932944,0.78967 3.436059,1.34561 4.194304,3.67001 3.51476,-0.14355 4.009528,2.7641 4.456449,4.32538 1.325393,1.61311 -1.389339,2.59698 0.262144,4.32538 1.766245,1.76624 4.154281,0.76209 2.621441,4.84966 -1.30624,0.85791 -2.459514,2.37014 -3.58217,2.63738 -0.937681,-0.18985 -1.345768,-0.15372 -1.398567,-2.50631 -0.0528,-2.35259 -1.484791,-3.57905 -1.441792,-4.98073 0.043,-1.40168 -2.598595,-3.83161 -3.670017,-5.11181 -1.071422,-1.2802 -0.05175,-3.2015 -1.441792,-3.2768 z"
       id="path3919"
       inkscape:connector-curvature="0"
       sodipodi:nodetypes="zssscccccccccczzzz" />
  </g>
</svg>
